<svg xmlns="http://www.w3.org/2000/svg" width="1402" height="948" viewBox="0 0 1402 948">
    <g fill="none" fill-rule="evenodd" stroke-width="2" opacity=".6">
        <path stroke="#CDDE00" stroke-dasharray="73.656 4.419 8.839 4.419 2.21 4.419" d="M.027.19c111.618 6.691 423.334 115.08 558.63 258.75 75.337 80.001 187.712 120.51 304.87 145.423 51.038 10.853 7.682 63.643 80.246 42.705 58.852-16.98 143.25 20.022 180.86-10.076 27.2-21.768 132.66 58.204 275.615 123.301" transform="translate(1 1.004)"/>
        <path stroke="#CDDE00" stroke-dasharray="14.319 28.637 7.275" d="M29.371 162.34c98.554 14.6 323.074 36.89 440.629 98.793C597.297 328.165 505.015 376.793 607.07 408c44.457 13.594 65.382-.84 106.015 11.993 27.13 8.57 172.663 69.345 234.946 73.86 62.283 4.516 75.215-18.185 146.76 7.133 71.545 25.319 49.803 67.37 24.135 87.948" transform="translate(1 1.004)"/>
        <path stroke="#CDDE00" stroke-dasharray="20 5" d="M1031.191 568.945c48.86 22.5 48.735 3.775 48.735-8.652 0-12.426-21.434-30-48.735-30-27.3 0-117.867 3.946-117.867 16.372s69.008-.22 117.867 22.28z" transform="translate(1 1.004)"/>
        <path stroke="#00A6CE" stroke-dasharray="73.656 4.419 8.839 4.419 2.21 4.419" d="M20.8 946c136.697-10.729 178.689-92.29 283.2-126.547 80.803-26.486 93.234 22.388 119.816-10.039C457.765 768.002 733.964 591.021 790.086 575c24.448-6.98 114.344 0 142.46 0 64.47 0 116.128 38.657 135.454 33.793 26.64-6.705 106.681-49.373 174-85.793" transform="translate(1 1.004)"/>
    </g>
</svg>
