<svg xmlns="http://www.w3.org/2000/svg" xmlns:xlink="http://www.w3.org/1999/xlink" width="203" height="80" viewBox="0 0 203 80">
    <defs>
        <path id="6ye9oeq9ua" d="M0 0.081L59.219 0.081 59.219 79.158 0 79.158z"/>
        <path id="7mlrtvf75c" d="M0.177 0.061L12.011 0.061 12.011 14.145 0.177 14.145z"/>
        <path id="8xvng00ahe" d="M0.012 0.061L10.215 0.061 10.215 14.145 0.012 14.145z"/>
        <path id="6sx3zs7tyg" d="M0.101 0.042L8.843 0.042 8.843 14.145 0.101 14.145z"/>
        <path id="8d16mloxvi" d="M0.097 0.061L11.93 0.061 11.93 14.145 0.097 14.145z"/>
        <path id="ori3tw1w9k" d="M0.154 0.016L17.33 0.016 17.33 19.707 0.154 19.707z"/>
    </defs>
    <g fill="none" fill-rule="evenodd">
        <g>
            <g>
                <path fill="#FFF" d="M46.503 31.526l-.05-.009c.013.007.028.013.042.019l.008-.01" transform="translate(-62 -18) translate(62 18)"/>
                <g transform="translate(-62 -18) translate(62 18) translate(0 .192)">
                    <mask id="6isurqf9jb" fill="#fff">
                        <use xlink:href="#6ye9oeq9ua"/>
                    </mask>
                    <path fill="#FFF" d="M56.367 14.481c.354.049.548.32.755.568.228.273.4.307.625.017.274-.352.474-.129.654.266 1.553 3.408.807 6.292-1.501 9.084-.98 1.185-2.162 2.174-3.156 3.34-1.613 1.89-3.385 5-3.75 5.782-.106.228-.517 1.314-.824 1.279-.289-.033-.407-.383-.496-.654-.107-.325-.17-.663-.262-1.035-.308.07-.442.337-.606.548-1.398 1.799-2.069 3.906-2.526 6.094-.505 2.423-.675 4.885-.84 7.35-.253 3.77-.266 7.542-.162 11.314.048 1.74.203 3.476.301 5.215.033.579-.156.584-.698.334-.73-.338-1.073-.952-1.685-1.539-.312 1.016-.277 1.997-.2 2.98.14 1.795.379 3.575.734 5.34.07.344.018.513-.404.35-.717-.277-1.402-.617-2.05-1.022-.436-.274-.506-.112-.522.303-.074 1.939.07 3.866.283 5.79.105.947.507 2.587.335 2.917-.137.262-2.196-.453-3.197-.795C16.287 71.116 27.008 57.805.271 52.075c-.357-.05-.325-.427-.115-.523 1.216-.554 2.205-1.347 3.171-2.171 1.13-.962 2.23-1.957 3.332-3.163-1.25.08-2.245.108-3.408-.058-.356-.052-.397-.314-.143-.473 1.9-1.185 2.898-3.035 4.148-4.703 1.33-1.776 2.564-3.618 3.823-5.595-.736.117-1.361.228-1.99.314-2.005.272-4.002.331-5.963-.295-.962-.308-1.814-.8-2.51-1.55-.33-.355-.352-.606.028-.995 3.089-3.158 6.832-5.165 11.086-6.165 2.461-.579 4.538-1.653 6.17-3.587.73-.863 1.511-1.682 2.218-2.563 1.46-1.821 3-3.524 5.213-4.476 1.827-.787 3.733-1.232 5.693-1.476 1.404-.174 2.81-.32 4.217-.468.946-.1 1.671-.607 2.355-1.211 2.287-2.019 4.31-4.298 6.39-6.52 1.637-1.746 3.23-3.534 4.953-5.198.234-.226.468-.453.717-.662.874-.73 1.787-.578 2.396.412.514.835.528 1.43.707 2.424.598 1.964 1.669 2.92 1.286 5.61-.096.674-.448 1.882-.844 3.133-.475 1.496-1.565 4.447-1.62 4.86-.112.83.474 1.557 1.299 1.378.351-.077.69-.262 1.012-.421.461-.229.644-.348 1.094-.601 1.035-.582 1.793-1.294 1.294-2.633-.02-.055-.076-.151-.005-.204.028-.02.079-.016.092-.014" mask="url(#6isurqf9jb)"/>
                </g>
                <g transform="translate(-62 -18) translate(62 18) translate(51.905 65.205)">
                    <mask id="oxuq5efced" fill="#fff">
                        <use xlink:href="#7mlrtvf75c"/>
                    </mask>
                    <path fill="#FFF" d="M9.26 13.765V8.071H2.947v5.694c0 .254-.14.38-.417.38H.538c-.24 0-.36-.126-.36-.38V.46c0-.114.028-.208.085-.284C.32.098.411.06.538.06h2.048c.075 0 .154.025.237.076.082.05.123.152.123.303v4.954h6.315V.46c0-.114.028-.208.085-.284.057-.077.149-.114.275-.114h2.048c.076 0 .152.025.228.076.076.05.114.152.114.303v13.325c0 .254-.134.38-.399.38h-1.99c-.241 0-.361-.126-.361-.38" mask="url(#oxuq5efced)"/>
                </g>
                <g transform="translate(-62 -18) translate(62 18) translate(66.308 65.205)">
                    <mask id="zxkrqvpolf" fill="#fff">
                        <use xlink:href="#8xvng00ahe"/>
                    </mask>
                    <path fill="#FFF" d="M.012 13.765V.44c0-.253.12-.38.36-.38h9.273c.253 0 .38.127.38.38v1.841c0 .254-.127.38-.38.38H2.781v2.866h5.234c.277 0 .417.127.417.38V7.71c0 .254-.14.38-.417.38H2.78v3.473h7.035c.266 0 .399.127.399.38v1.822c0 .254-.133.38-.399.38H.373c-.24 0-.36-.126-.36-.38" mask="url(#zxkrqvpolf)"/>
                </g>
                <path fill="#FFF" d="M84.6 68.91l-2.03 5.372h4.02L84.6 68.91zM77.98 78.95l5.348-13.325c.114-.24.272-.36.474-.36h1.593c.227 0 .385.12.474.36l5.348 13.325c.063.127.066.225.01.294-.058.07-.15.105-.276.105h-2.067c-.227 0-.386-.114-.474-.342l-.91-2.278h-5.822l-.89 2.278c-.09.228-.248.342-.475.342h-2.086c-.278 0-.36-.133-.247-.399z" transform="translate(-62 -18) translate(62 18)"/>
                <g transform="translate(-62 -18) translate(62 18) translate(92.668 65.205)">
                    <mask id="ydjq7efoih" fill="#fff">
                        <use xlink:href="#6sx3zs7tyg"/>
                    </mask>
                    <path fill="#FFF" d="M.101.46C.101.344.14.247.215.164.291.083.398.042.537.042h1.935c.265 0 .404.14.417.417v11.104h5.537c.114 0 .211.038.294.114.082.077.123.184.123.323v1.728c0 .265-.139.405-.417.417H.518c-.278 0-.417-.14-.417-.417V.459z" mask="url(#ydjq7efoih)"/>
                </g>
                <path fill="#FFF" d="M99.83 67.43v-1.804c0-.24.12-.36.36-.36h9.955c.253 0 .38.12.38.36v1.803c0 .254-.127.38-.38.38h-3.64V78.97c0 .253-.12.38-.361.38h-2.048c-.24 0-.36-.127-.36-.38V67.81h-3.546c-.24 0-.36-.126-.36-.38" transform="translate(-62 -18) translate(62 18)"/>
                <g transform="translate(-62 -18) translate(62 18) translate(112.506 65.205)">
                    <mask id="y5c4ls09tj" fill="#fff">
                        <use xlink:href="#8d16mloxvi"/>
                    </mask>
                    <path fill="#FFF" d="M9.18 13.765V8.071H2.865v5.694c0 .254-.14.38-.417.38H.457c-.24 0-.36-.126-.36-.38V.46c0-.114.028-.208.085-.284C.24.098.33.06.457.06h2.048c.076 0 .154.025.237.076.082.05.123.152.123.303v4.954H9.18V.46c0-.114.028-.208.085-.284.057-.077.149-.114.275-.114h2.048c.076 0 .152.025.228.076.076.05.114.152.114.303v13.325c0 .254-.133.38-.399.38H9.54c-.24 0-.36-.126-.36-.38" mask="url(#y5c4ls09tj)"/>
                </g>
                <path fill="#FFF" d="M52.082 41.269c0-.345.16-.53.504-.53h12.7c.345 0 .53.185.53.53v2.574c0 .345-.185.531-.53.531h-9.332v5.201h7.132c.345 0 .503.186.503.531v2.442c0 .345-.158.53-.503.53h-7.132V59.9c0 .344-.16.53-.53.53h-2.838c-.344 0-.504-.186-.504-.53V41.269zM68.348 41.295c0-.345.186-.557.53-.557h2.864c.345 0 .504.212.504.557V59.9c0 .344-.16.53-.504.53h-2.863c-.371 0-.53-.186-.53-.53V41.295zM74.245 56.423l1.776-1.752c.318-.292.61-.133.928.133 1.088 1.088 2.572 2.282 4.587 2.282 2.094 0 3.34-1.247 3.34-2.574 0-1.698-2.306-2.283-3.711-2.654-4.295-1.274-6.575-2.972-6.575-5.998 0-3.264 2.89-5.493 7.158-5.493 2.307 0 4.587 1.247 6.151 2.84.319.344.319.663-.027 1.034l-1.458 1.566c-.344.318-.662.106-1.007-.159-.849-.717-2.227-1.832-3.791-1.832-1.352 0-3.05.32-3.05 2.123 0 1.354 1.592 1.885 3.845 2.522 3.58 1.061 6.576 2.468 6.576 6.157s-3.527 6.078-7.371 6.078c-2.731 0-5.462-1.327-7.239-3.265-.29-.318-.503-.637-.132-1.008M104.147 51.937h-8.83V59.9c0 .344-.158.53-.582.53H91.95c-.345 0-.504-.186-.504-.53V41.295c0-.318.16-.557.504-.557h2.863c.212 0 .504.106.504.53v6.928h8.829v-6.9c0-.319.16-.558.504-.558h2.863c.212 0 .477.106.477.53V59.9c0 .344-.159.53-.557.53h-2.783c-.345 0-.504-.186-.504-.53v-7.963zM116.532 53.344h5.621l-2.784-7.51-2.837 7.51zm1.06-12.102c.16-.345.399-.504.664-.504h2.227c.291 0 .53.16.663.504l7.476 18.63c.16.346-.026.558-.37.558h-2.89c-.319 0-.531-.133-.664-.478l-1.273-3.184h-8.139l-1.246 3.184c-.132.345-.371.478-.663.478h-2.916c-.344 0-.504-.186-.344-.557l7.476-18.63zM181.946 55.839l1.326 2.256c.265.318.186.53-.133.77-1.51 1.14-3.366 1.857-5.753 1.857-5.621 0-10.181-4.538-10.181-10.164 0-5.627 4.56-10.112 10.181-10.112 2.387 0 4.242.717 5.78 1.831.265.24.239.531.159.664l-1.405 2.388c-.16.213-.424.213-.742.027-1.247-.77-2.36-1.22-3.792-1.22-3.58 0-6.257 2.812-6.257 6.422 0 3.583 2.678 6.528 6.257 6.528 1.432 0 2.784-.531 3.712-1.247.318-.239.61-.292.848 0" transform="translate(-62 -18) translate(62 18)"/>
                <g transform="translate(-62 -18) translate(62 18) translate(185.608 40.723)">
                    <mask id="zx8uble7hl" fill="#fff">
                        <use xlink:href="#ori3tw1w9k"/>
                    </mask>
                    <path fill="#FFF" d="M9.01 8.375l8.192 10.722c.239.318.133.61-.238.61h-3.845c-.318 0-.504-.185-.716-.478l-5.991-7.908-2.387 2.574v5.282c0 .345-.159.53-.504.53H.658c-.345 0-.504-.185-.504-.53V.546c0-.318.186-.53.504-.53h2.81c.213 0 .557.185.557.53v8.201l7.344-8.36c.319-.345.53-.371.822-.371h3.42c.398 0 .425.344.212.61L9.01 8.375z" mask="url(#zx8uble7hl)"/>
                </g>
                <path fill="#FFF" d="M158.072 45.834l-2.784 7.51h5.62l-2.836-7.51zm9.253 14.039c.159.371 0 .557-.345.557h-2.916c-.292 0-.53-.133-.663-.478l-1.246-3.184h-8.14l-1.272 3.184c-.133.345-.345.478-.663.478h-2.89c-.344 0-.53-.212-.371-.557l7.476-18.63c.133-.346.372-.505.663-.505h2.227c.265 0 .504.16.663.504l7.477 18.63zM152.534 40.839c-.075-.102-.196-.153-.365-.153h-2.995c-.318 0-.535.164-.65.49l-5.063 13.707-3.94-10.663c-.068-.186-.245-.31-.443-.31h-.407c-.198 0-.375.124-.444.31l-3.94 10.663-5.062-13.706c-.115-.327-.332-.491-.65-.491h-2.996c-.168 0-.29.051-.364.153-.076.102-.078.241-.007.418l7.33 18.628c.071.178.162.304.272.379.11.075.24.112.391.112h.005c.32 0 .639-.042.942-.144 2.254-.758 3.802-2.02 3.935-3.005.111-.822-1.465-2.273-1.548-2.884-.02-.157.053-.252.125-.31.359-.292 2.372-.392 2.382-.657 0-.164-.22-.31-.416-.41-.283-.134-.874-.372-1.142-.478l-.151-.058c.08-.123.677.014.94.071.227.049.576.144.811.227.326.113.65.238.972.385.554.255.598.588.43.805-.245.317-1.227.369-1.545.417-.154.022-.571.04-.571.179 0 .139.534.394.624.447.68.4 1.74 1.217 2.356 1.894 1.29 1.42.965 2.874.76 3.521h2.437c.151 0 .282-.037.391-.112.111-.075.202-.201.272-.379l7.33-18.628c.072-.177.07-.316-.006-.418" transform="translate(-62 -18) translate(62 18)"/>
            </g>
        </g>
    </g>
</svg>
