<svg xmlns="http://www.w3.org/2000/svg" xmlns:xlink="http://www.w3.org/1999/xlink" width="768" height="180" viewBox="0 0 768 180">
    <defs>
        <path id="prefix__a" d="M0.922 0H767.922V180H0.922z"/>
    </defs>
    <g fill="none" fill-rule="evenodd">
        <mask id="prefix__b" fill="#fff">
            <use xlink:href="#prefix__a"/>
        </mask>
        <path fill="#EBECED" d="M267.922 182.36c65.908-30.912 107.37-50.839 124.389-59.78 28.236-14.836 24.334-19.44 30.984-21.447C436.922 97.02 447.827 81.449 459.514 77c22.72-8.649 34.084-28.056 48.619-28.056 14.535 0 34.029-17.36 47.842-26.144 28.964-18.42 35.584-25.052 73.027-1.645 7.791 4.87 10.699 12.046 20.414 16.392 4.187 1.872 23.004 8.401 30.291 15.937 2.039 2.109 7.856 4.692 17.45 7.748 2.563.817 7.013 2.117 13.352 3.902l77.046 60.23V166h-455" mask="url(#prefix__b)"/>
        <path fill="#5B656D" d="M436.922 138.87c59.166-6.782 94.914-16.138 107.246-28.068 10.653-10.305 18.985-8.456 29.643-16.551 7.847-5.961 17.213-22.577 28.38-26.499 26.334-9.248 29.873-30.442 56.153-10.597 26.28 19.845 7.366 19.962 33.607 47.488 26.242 27.525 20.506 15.82 40.399 30.472 13.261 9.768 36.941 32.063 71.039 66.885H436.922" mask="url(#prefix__b)"/>
        <path fill="#323E48" d="M-22 180c189.948-1.808 305.255-7.808 345.922-18 61-15.288 84.984-42.427 125.824-51.1 40.84-8.673 50.778-57.416 77.992-57.416 14.216 0 24.37 23.516 38.807 30.577 8.345 4.081 17.807 25.787 20.38 32.681 2.62 7.02 11.8 27.452 41.775 41.968C658.676 173.226 698.422 180 732.39 180H-22z" mask="url(#prefix__b)"/>
    </g>
</svg>
