<svg xmlns="http://www.w3.org/2000/svg" width="204" height="80" viewBox="0 0 204 80">
    <g fill="none" fill-rule="evenodd">
        <path fill="#323E48" d="M56.423 14.673c.353.049.548.32.755.568.229.273.4.306.626.017.275-.352.474-.13.654.265 1.555 3.408.809 6.292-1.502 9.085-.98 1.184-2.164 2.174-3.159 3.339-1.614 1.89-3.389 5-3.753 5.782-.106.229-.519 1.314-.825 1.28-.29-.034-.408-.384-.497-.655-.107-.324-.17-.663-.262-1.034-.309.07-.443.337-.607.547-1.4 1.8-2.07 3.907-2.528 6.095-.506 2.422-.676 4.884-.842 7.35-.252 3.77-.266 7.541-.161 11.314.048 1.74.203 3.476.301 5.214.033.58-.157.585-.699.334-.73-.337-1.074-.951-1.687-1.538-.312 1.016-.277 1.997-.2 2.98.14 1.794.38 3.574.735 5.339.07.344.018.513-.404.35-.718-.276-1.404-.616-2.052-1.022-.437-.273-.507-.111-.523.304-.074 1.939.07 3.866.283 5.79.105.946.508 2.586.335 2.916-.137.262-2.198-.453-3.2-.795-20.908-7.19-10.176-20.502-36.94-26.231-.357-.051-.325-.428-.115-.523 1.217-.554 2.207-1.348 3.174-2.172 1.13-.962 2.232-1.956 3.335-3.162-1.25.079-2.246.107-3.41-.059-.358-.051-.398-.314-.144-.472 1.903-1.185 2.901-3.035 4.152-4.704 1.332-1.775 2.567-3.618 3.827-5.594-.737.117-1.363.228-1.992.313-2.007.273-4.006.332-5.969-.295-.963-.308-1.816-.8-2.513-1.55-.33-.355-.352-.606.03-.994 3.09-3.158 6.837-5.165 11.095-6.166 2.464-.579 4.543-1.653 6.177-3.586.73-.863 1.513-1.682 2.22-2.563 1.461-1.821 3.002-3.524 5.218-4.477 1.829-.786 3.737-1.232 5.699-1.475 1.405-.175 2.813-.321 4.22-.469.947-.099 1.674-.607 2.358-1.21 2.29-2.02 4.314-4.298 6.397-6.52 1.638-1.746 3.232-3.534 4.957-5.198.234-.226.469-.454.718-.663.875-.73 1.789-.577 2.398.412.514.836.529 1.43.708 2.425.599 1.963 1.67 2.92 1.287 5.61-.096.674-.448 1.882-.845 3.132-.475 1.496-1.566 4.448-1.622 4.861-.112.83.475 1.556 1.3 1.377.353-.076.692-.261 1.014-.42.462-.23.645-.349 1.095-.602 1.037-.582 1.795-1.294 1.295-2.632-.02-.056-.075-.152-.004-.204.027-.02.078-.016.092-.014"/>
        <g fill="#00A5CE">
            <path d="M69.989 13.765V8.071h-6.321v5.694c0 .254-.14.38-.418.38h-1.993c-.24 0-.36-.126-.36-.38V.46c0-.114.028-.208.085-.284.057-.077.149-.114.275-.114h2.05c.076 0 .155.025.238.076.082.05.123.152.123.303v4.954h6.321V.46c0-.114.028-.208.085-.284.057-.077.149-.114.275-.114h2.05c.077 0 .152.025.228.076.076.05.114.152.114.303v13.325c0 .254-.133.38-.399.38H70.35c-.24 0-.36-.126-.36-.38M14.569 13.765V.44c0-.253.12-.38.36-.38h9.282c.253 0 .38.127.38.38v1.841c0 .254-.127.38-.38.38h-6.87v2.866h5.238c.278 0 .417.127.417.38V7.71c0 .254-.14.38-.417.38H17.34v3.473h7.042c.266 0 .399.127.399.38v1.822c0 .254-.133.38-.399.38H14.93c-.24 0-.36-.126-.36-.38M32.866 3.705l-2.03 5.372h4.023l-1.993-5.372zm-6.625 10.042L31.594.42c.114-.24.272-.36.475-.36h1.594c.228 0 .386.12.475.36l5.353 13.326c.063.126.066.224.01.294-.058.07-.15.104-.276.104h-2.069c-.228 0-.386-.114-.475-.342l-.91-2.277h-5.828l-.892 2.277c-.089.228-.247.342-.475.342h-2.088c-.278 0-.36-.133-.247-.398zM41.044.46c0-.115.038-.212.114-.295.076-.082.183-.123.322-.123h1.936c.266 0 .405.14.418.417v11.104h5.543c.114 0 .211.038.294.114.082.077.124.184.124.323v1.728c0 .265-.14.405-.418.417H41.46c-.278 0-.417-.14-.417-.417V.459zM48.11 2.225V.42c0-.24.12-.36.362-.36h9.965c.253 0 .38.12.38.36v1.804c0 .253-.127.38-.38.38h-3.645v11.16c0 .254-.12.38-.36.38h-2.05c-.24 0-.361-.126-.361-.38V2.605h-3.55c-.24 0-.36-.127-.36-.38M9.41 13.765V8.071H3.087v5.694c0 .254-.14.38-.417.38H.677c-.24 0-.36-.126-.36-.38V.46c0-.114.028-.208.085-.284C.46.098.551.06.677.06h2.05c.076 0 .155.025.238.076.082.05.123.152.123.303v4.954H9.41V.46c0-.114.028-.208.086-.284C9.55.098 9.643.06 9.77.06h2.05c.076 0 .152.025.228.076.076.05.114.152.114.303v13.325c0 .254-.134.38-.4.38H9.77c-.24 0-.36-.126-.36-.38" transform="translate(51.817 65.205)"/>
        </g>
        <g fill="#323E48">
            <path d="M0 .902c0-.345.16-.53.505-.53h12.712c.345 0 .53.185.53.53v2.575c0 .345-.185.53-.53.53H3.875V9.21h7.14c.344 0 .503.185.503.53v2.442c0 .345-.159.531-.504.531h-7.14v6.82c0 .346-.158.531-.53.531H.505c-.345 0-.504-.185-.504-.53V.902zM16.282.929c0-.345.186-.557.53-.557h2.867c.345 0 .505.212.505.557v18.604c0 .344-.16.53-.505.53h-2.866c-.372 0-.531-.186-.531-.53V.929zM22.184 16.056l1.779-1.752c.318-.291.61-.133.928.133 1.089 1.088 2.575 2.282 4.592 2.282 2.096 0 3.344-1.247 3.344-2.574 0-1.698-2.31-2.282-3.716-2.654-4.3-1.274-6.582-2.972-6.582-5.998C22.53 2.23 25.422 0 29.695 0c2.309 0 4.591 1.247 6.157 2.84.319.345.319.663-.027 1.034l-1.46 1.566c-.344.318-.663.107-1.008-.159-.85-.716-2.229-1.831-3.795-1.831-1.353 0-3.052.319-3.052 2.123 0 1.353 1.593 1.884 3.848 2.521 3.583 1.061 6.583 2.469 6.583 6.157 0 3.69-3.53 6.078-7.379 6.078-2.733 0-5.467-1.327-7.245-3.265-.292-.318-.504-.637-.133-1.008M52.116 11.57h-8.838v7.963c0 .345-.159.53-.584.53h-2.786c-.345 0-.505-.185-.505-.53V.929c0-.319.16-.558.505-.558h2.866c.212 0 .504.106.504.53V7.83h8.838V.93c0-.319.16-.558.504-.558h2.866c.212 0 .478.106.478.53v18.632c0 .345-.16.53-.557.53H52.62c-.345 0-.504-.185-.504-.53v-7.962zM64.513 12.977h5.627l-2.787-7.51-2.84 7.51zM65.575.876c.16-.346.399-.504.664-.504h2.229c.291 0 .53.158.664.504l7.483 18.63c.16.345-.026.557-.371.557h-2.893c-.319 0-.531-.132-.663-.478l-1.275-3.184h-8.147l-1.247 3.184c-.133.346-.372.478-.664.478h-2.92c-.344 0-.503-.186-.344-.557L65.575.876zM100.55.472c-.074-.101-.196-.153-.364-.153h-2.999c-.318 0-.535.164-.65.491l-5.068 13.707-3.944-10.663c-.068-.186-.246-.31-.444-.31h-.407c-.198 0-.376.124-.444.31l-3.944 10.663L77.218.81c-.115-.327-.332-.49-.65-.49h-2.999c-.168 0-.29.05-.365.152-.075.102-.078.241-.006.418l7.337 18.629c.071.177.162.303.272.378.11.075.241.113.392.113h.004c.32 0 .64-.043.943-.145 2.257-.757 3.806-2.02 3.94-3.005.11-.821-1.467-2.272-1.55-2.883-.02-.158.053-.253.125-.312.36-.29 2.374-.391 2.385-.655 0-.165-.221-.312-.417-.41-.283-.135-.875-.372-1.143-.48-.025-.008-.151-.056-.151-.056.08-.124.677.014.94.07.228.05.577.145.813.227.326.113.65.238.972.386.555.254.599.588.43.804-.244.317-1.227.369-1.546.417-.154.023-.571.04-.571.179 0 .139.534.394.624.448.68.4 1.743 1.216 2.359 1.893 1.29 1.421.965 2.874.76 3.522h2.44c.15 0 .282-.038.392-.113.11-.075.201-.201.272-.378L100.557.89c.071-.177.069-.316-.006-.418M106.094 5.467l-2.787 7.51h5.627l-2.84-7.51zm9.262 14.04c.16.37 0 .556-.345.556h-2.92c-.291 0-.53-.132-.663-.478l-1.247-3.184h-8.148l-1.273 3.184c-.133.346-.346.478-.664.478h-2.893c-.344 0-.53-.212-.372-.557l7.484-18.63c.134-.346.372-.504.664-.504h2.23c.264 0 .503.158.663.504l7.484 18.63zM129.992 15.472l1.327 2.256c.265.318.186.531-.133.77-1.513 1.14-3.37 1.857-5.759 1.857-5.626 0-10.19-4.538-10.19-10.164 0-5.626 4.564-10.112 10.19-10.112 2.389 0 4.246.717 5.786 1.832.265.239.239.53.159.663l-1.407 2.388c-.16.213-.424.213-.743.027-1.247-.77-2.362-1.22-3.795-1.22-3.583 0-6.263 2.813-6.263 6.422 0 3.583 2.68 6.528 6.263 6.528 1.433 0 2.787-.53 3.715-1.247.32-.239.611-.292.85 0M142.676 8.73l8.2 10.723c.24.318.133.61-.239.61h-3.848c-.318 0-.504-.185-.716-.478l-5.998-7.908-2.39 2.574v5.282c0 .345-.158.53-.503.53h-2.866c-.345 0-.505-.185-.505-.53V.902c0-.318.186-.53.505-.53h2.813c.213 0 .557.185.557.53v8.201l7.351-8.36c.32-.345.531-.371.823-.371h3.424c.398 0 .425.344.212.61l-6.82 7.749z" transform="translate(52.134 40.367)"/>
        </g>
    </g>
</svg>
